<?xml version="1.0" encoding="utf-8"?>
<!-- Generator: Adobe Illustrator 24.1.2, SVG Export Plug-In . SVG Version: 6.00 Build 0)  -->
<svg version="1.1" id="Layer_1" xmlns="http://www.w3.org/2000/svg" xmlns:xlink="http://www.w3.org/1999/xlink" x="0px" y="0px"
	 viewBox="0 0 1346 574" style="enable-background:new 0 0 1346 574;" xml:space="preserve">
<style type="text/css">
	.st0{fill:url(#SVGID_1_);}
	.st1{fill:#009B91;}
	.st2{fill:#009589;}
	.st3{fill:#008F84;}
	.st4{fill:#009087;}
	.st5{fill:#00857D;}
	.st6{fill:#00837D;}
</style>
<linearGradient id="SVGID_1_" gradientUnits="userSpaceOnUse" x1="673" y1="574" x2="673" y2="-0.5">
	<stop  offset="0.3575" style="stop-color:#01A69B"/>
	<stop  offset="0.6733" style="stop-color:#029D92"/>
	<stop  offset="0.9944" style="stop-color:#039083"/>
</linearGradient>
<rect x="-0.5" y="-0.5" class="st0" width="1347" height="574.5"/>
<polygon class="st1" points="1148.89,574 57.05,574 361,254 474,367 503,338 571.5,406.5 622,356 729.5,463.5 882.5,310.5 "/>
<polygon class="st2" points="575,574 0,574 0,353 177,176 "/>
<polygon class="st2" points="1346.5,547.5 1346.5,574 751.17,574 1062.09,263.09 "/>
<polygon class="st3" points="242.5,285.5 531,574 0,574 0,538 "/>
<polygon class="st3" points="1346.5,454.5 1346.5,574 891.5,574 1178.75,286.75 "/>
<polygon class="st4" points="462,574 -0.5,574 -0.5,399.33 0,399 143.5,255.5 "/>
<polygon class="st4" points="1346.5,177.5 1346.5,574 950,574 "/>
<polygon class="st5" points="0,272 302,574 0,574 "/>
<polygon class="st5" points="1346.75,261.75 1346.75,574 1034.5,574 "/>
<polygon class="st6" points="0,328 246,574 -0.5,574 -0.5,342.39 "/>
<polygon class="st6" points="1346.5,497.5 1346.5,574 1187,574 1305,456 "/>
</svg>
