<?xml version="1.0" encoding="UTF-8"?>
<svg xmlns="http://www.w3.org/2000/svg" xmlns:xlink="http://www.w3.org/1999/xlink" width="15pt" height="14pt" viewBox="0 0 15 14" version="1.1">
<g id="surface1">
<path style=" stroke:none;fill-rule:nonzero;fill:rgb(86.666667%,20%,20%);fill-opacity:1;" d="M 15.015625 7.007812 C 15.015625 10.875 11.652344 14.011719 7.507812 14.011719 C 3.359375 14.011719 0 10.875 0 7.007812 C 0 3.136719 3.359375 0 7.507812 0 C 11.652344 0 15.015625 3.136719 15.015625 7.007812 Z M 15.015625 7.007812 "/>
<path style=" stroke:none;fill-rule:nonzero;fill:rgb(100%,100%,100%);fill-opacity:1;" d="M 6.574219 9.011719 L 6.574219 1.800781 L 8.441406 1.800781 L 8.441406 9.011719 L 6.574219 9.011719 "/>
<path style=" stroke:none;fill-rule:nonzero;fill:rgb(100%,100%,100%);fill-opacity:1;" d="M 6.339844 11.121094 C 6.339844 10.519531 6.863281 10.035156 7.507812 10.035156 C 8.152344 10.035156 8.671875 10.519531 8.671875 11.121094 C 8.671875 11.722656 8.152344 12.210938 7.507812 12.210938 C 6.863281 12.210938 6.339844 11.722656 6.339844 11.121094 Z M 6.339844 11.121094 "/>
</g>
</svg>
