<?xml version="1.0" encoding="UTF-8"?>
<svg xmlns="http://www.w3.org/2000/svg" xmlns:xlink="http://www.w3.org/1999/xlink" width="15pt" height="15pt" viewBox="0 0 15 15" version="1.1">
<g id="surface1">
<path style=" stroke:none;fill-rule:nonzero;fill:rgb(19.607843%,77.647059%,44.313725%);fill-opacity:1;" d="M 7.503906 0.0078125 C 11.648438 0.0078125 15.003906 3.367188 15.003906 7.507812 C 15.003906 11.648438 11.648438 15.007812 7.503906 15.007812 C 3.363281 15.007812 0.00390625 11.648438 0.00390625 7.507812 C 0.00390625 3.367188 3.363281 0.0078125 7.503906 0.0078125 Z M 7.503906 0.0078125 "/>
<path style=" stroke:none;fill-rule:nonzero;fill:rgb(100%,100%,100%);fill-opacity:1;" d="M 12.335938 5.492188 L 11.433594 4.585938 C 11.308594 4.464844 11.15625 4.402344 10.980469 4.402344 C 10.800781 4.402344 10.648438 4.464844 10.527344 4.585938 L 6.15625 8.964844 L 4.199219 7 C 4.074219 6.875 3.921875 6.8125 3.746094 6.8125 C 3.566406 6.8125 3.417969 6.875 3.292969 7 L 2.386719 7.902344 C 2.261719 8.027344 2.199219 8.179688 2.199219 8.355469 C 2.199219 8.535156 2.261719 8.6875 2.386719 8.808594 L 4.796875 11.222656 L 5.703125 12.125 C 5.828125 12.25 5.980469 12.3125 6.15625 12.3125 C 6.335938 12.3125 6.484375 12.25 6.609375 12.125 L 7.515625 11.222656 L 12.335938 6.398438 C 12.460938 6.273438 12.523438 6.125 12.523438 5.945312 C 12.523438 5.769531 12.460938 5.617188 12.335938 5.492188 "/>
</g>
</svg>
