<svg xmlns="http://www.w3.org/2000/svg" xmlns:xlink="http://www.w3.org/1999/xlink" width="10" height="10" version="1.1" style=""><rect id="backgroundrect" width="100%" height="100%" x="0" y="0" fill="none" stroke="none"/>

<g class="currentLayer" style=""><title>Layer 1</title><g id="surface1" class="" fill="#e76767" fill-opacity="1">
<path style="stroke: none; fill-rule: evenodd;" d="M 6.105469 4.933594 L 9.625 1.417969 C 9.933594 1.089844 9.929688 0.574219 9.613281 0.257812 C 9.296875 -0.0625 8.777344 -0.0664062 8.453125 0.246094 L 4.933594 3.761719 L 1.417969 0.246094 C 1.089844 -0.0664062 0.574219 -0.0625 0.257812 0.257812 C -0.0625 0.574219 -0.0664062 1.089844 0.246094 1.417969 L 3.761719 4.933594 L 0.246094 8.453125 C 0.0273438 8.660156 -0.0625 8.972656 0.0117188 9.261719 C 0.0859375 9.554688 0.3125 9.78125 0.605469 9.855469 C 0.898438 9.933594 1.207031 9.84375 1.417969 9.625 L 4.933594 6.105469 L 8.453125 9.625 C 8.777344 9.933594 9.296875 9.929688 9.613281 9.609375 C 9.929688 9.292969 9.933594 8.777344 9.625 8.453125 Z M 6.105469 4.933594 " id="svg_1" fill="#e76767" fill-opacity="1"/>
</g></g></svg>